<svg xmlns="http://www.w3.org/2000/svg" viewBox="0 0 1024 1024">
  <defs>
    <linearGradient id="bg" x1="160" y1="112" x2="864" y2="912" gradientUnits="userSpaceOnUse">
      <stop offset="0" stop-color="#f8c54d"/>
      <stop offset="0.52" stop-color="#ec762f"/>
      <stop offset="1" stop-color="#9f3b23"/>
    </linearGradient>
    <filter id="shadow" x="-20%" y="-20%" width="140%" height="140%">
      <feDropShadow dx="0" dy="24" stdDeviation="28" flood-color="#24110c" flood-opacity="0.38"/>
    </filter>
  </defs>
  <rect x="64" y="64" width="896" height="896" rx="184" fill="#141414"/>
  <rect x="104" y="104" width="816" height="816" rx="150" fill="url(#bg)"/>
  <path d="M196 196h632v632H196z" fill="none" stroke="#111" stroke-width="24" stroke-linejoin="round" opacity="0.3"/>
  <g filter="url(#shadow)">
    <path d="M330 228h216c75 0 134 17 177 50 43 34 64 82 64 145 0 42-10 77-30 106-20 29-48 50-84 64 44 11 79 34 104 68 25 35 37 77 37 127 0 67-22 118-67 155-45 36-108 54-189 54H330V228zm151 126v187h60c31 0 55-8 72-24 18-16 27-39 27-68 0-32-9-56-28-71-18-16-46-24-83-24h-48zm0 300v218h78c34 0 60-9 78-27 19-18 28-44 28-78 0-75-38-113-115-113h-69z" fill="#fff7d8" stroke="#141414" stroke-width="28" stroke-linejoin="round"/>
    <path d="M330 228h216c75 0 134 17 177 50 43 34 64 82 64 145 0 42-10 77-30 106-20 29-48 50-84 64 44 11 79 34 104 68 25 35 37 77 37 127 0 67-22 118-67 155-45 36-108 54-189 54H330V228zm151 126v187h60c31 0 55-8 72-24 18-16 27-39 27-68 0-32-9-56-28-71-18-16-46-24-83-24h-48zm0 300v218h78c34 0 60-9 78-27 19-18 28-44 28-78 0-75-38-113-115-113h-69z" fill="#fff7d8"/>
  </g>
</svg>
